{"title":"The Man from U N C L E 2015 HDRIP x264 AC3 TiTAN","uid":12637312,"size":1367521347,"categoryP":"video","categoryS":"movies","magnet":"?xt=urn:btih:43225b3846bb945fcce909c215cadc23d03565b3&amp;dn=The+Man+from+U+N+C+L+E+2015+HDRIP+x264+AC3+TiTAN&amp;tr=udp%3A%2F%2Ftracker.leechers-paradise.org%3A6969&amp;tr=udp%3A%2F%2Fzer0day.ch%3A1337&amp;tr=udp%3A%2F%2Fopen.demonii.com%3A1337&amp;tr=udp%3A%2F%2Ftracker.coppersurfer.tk%3A6969&amp;tr=udp%3A%2F%2Fexodus.desync.com%3A6969","seeders":0,"leechers":0,"uploader":"makintos13","files":2,"time":1445943721,"description":"screens;;\r\n \nhttp://imgmak.com/jy\r\n \nhttp://imgmak.com/j6\r\n \nhttp://imgmak.com/j9\r\n \nhttp://imgmak.com/jM\r\n \nhttp://imgmak.com/jO\r\n \nhttp://imgmak.com/jP\r\n\r\n:::::::\r\n \nhttp://www.imdb.com/title/tt1638355/\r\n\r\nSource: Playnow\r\n\r\nGeneral\r\n\r\nFormat                                   : Matroska\r\nFormat version                           : Version 2\r\nFile size                                : 1.27 GiB\r\nDuration                                 : 1h 56mn\r\nOverall bit rate mode                    : Variable\r\nOverall bit rate                         : 1 566 Kbps\r\n\r\nVideo\r\nID                                       : 1\r\nFormat                                   : AVC\r\nFormat/Info                              : Advanced Video Codec\r\nFormat profile                           :   \r\nFormat settings, CABAC                   : Yes\r\nFormat settings, ReFrames                : 3 frames\r\nCodec ID                                 : V_MPEG4/ISO/AVC\r\nDuration                                 : 1h 56mn\r\nBit rate mode                            : Variable\r\nBit rate                                 : 1 151 Kbps\r\nMaximum bit rate                         : 40.0 Mbps\r\nWidth                                    : 720 pixels\r\nHeight                                   : 304 pixels\r\nDisplay aspect ratio                     : 2.35:1\r\nFrame rate mode                          : Constant\r\nFrame rate                               : 23.976 fps\r\nColor space                              : YUV\r\nChroma subsampling                       : 4:2:0\r\nBit depth                                : 8 bits\r\nScan type                                : Progressive\r\nBits/(Pixel*Frame)                       : 0.219\r\nStream size                              : 958 MiB (73%)\r\nDefault                                  : Yes\r\nForced                                   : No\r\nColor primaries                          : BT.709\r\nTransfer characteristics                 : BT.709\r\nMatrix coefficients                      : BT.709\r\n\r\nAudio\r\nID                                       : 2\r\nFormat                                   : AC-3\r\nFormat/Info                              : Audio Coding 3\r\nMode extension                           : CM (complete main)\r\nFormat settings, Endianness              : Big\r\nCodec ID                                 : A_AC3\r\nDuration                                 : 1h 56mn\r\nBit rate mode                            : Constant\r\nBit rate                                 : 384 Kbps\r\nChannel(s)                               : 6 channels\r\nChannel positions                        : Front: L C R, Side: L R, LFE\r\nSampling rate                            : 48.0 KHz\r\nBit depth                                : 16 bits\r\nCompression mode                         : Lossy\r\nStream size                              : 320 MiB (25%)\r\nLanguage                                 : English\r\nDefault                                  : Yes\r\nForced                                   : No","torrent":{"xt":"urn:btih:43225b3846bb945fcce909c215cadc23d03565b3","amp;dn":"The+Man+from+U+N+C+L+E+2015+HDRIP+x264+AC3+TiTAN","amp;tr":["udp%3A%2F%2Ftracker.leechers-paradise.org%3A6969","udp%3A%2F%2Fzer0day.ch%3A1337","udp%3A%2F%2Fopen.demonii.com%3A1337","udp%3A%2F%2Ftracker.coppersurfer.tk%3A6969","udp%3A%2F%2Fexodus.desync.com%3A6969"],"infoHash":"43225b3846bb945fcce909c215cadc23d03565b3","infoHashBuffer":{"type":"Buffer","data":[67,34,91,56,70,187,148,95,204,233,9,194,21,202,220,35,208,53,101,179]},"announce":[],"urlList":[]}}